<svg width="40" height="40" xmlns="http://www.w3.org/2000/svg">

 <g>
  <title>background</title>
  <rect fill="none" id="canvas_background" height="42" width="42" y="-1" x="-1"/>
 </g>
 <g>
  <title>Layer 1</title>
  <path stroke="null" fill="#ffffff" id="svg_2" d="m35.972604,39.683564l-11.933562,-3.389804c-1.256164,0.274849 -2.602055,0.366465 -4.217123,0.366465c-11.395205,0 -19.739726,-7.695771 -19.739726,-18.323264c0,-4.947281 1.704795,-9.253248 5.024658,-12.643052c3.678767,-3.664653 8.972603,-5.680212 14.715068,-5.680212c11.395205,0 19.739726,7.695771 19.739726,18.323264c0,3.939502 -1.256164,7.787387 -3.589041,10.810726l0,10.535877zm-11.933562,-5.22213l10.139041,2.840106l0,-8.70355l0.179452,-0.274849c2.243151,-2.840106 3.409589,-6.321526 3.409589,-9.986179c0,-9.528097 -7.536986,-16.490938 -17.945205,-16.490938c-5.383562,0 -10.139041,1.832326 -13.458904,5.130514c-2.960959,3.023339 -4.486301,6.96284 -4.486301,11.360424c0,9.528097 7.536986,16.490938 17.945205,16.490938c1.615068,0 2.871233,-0.091616 4.037671,-0.366465l0.179452,0z"/>
 </g>
</svg>