<?xml version="1.0" ?><!DOCTYPE svg  PUBLIC '-//W3C//DTD SVG 1.1//EN'  'http://www.w3.org/Graphics/SVG/1.1/DTD/svg11.dtd'><svg enable-background="new 0 0 512 512" height="30px" id="Layer_1" version="1.1" viewBox="0 0 512 512" width="30px" xml:space="preserve" xmlns="http://www.w3.org/2000/svg" xmlns:xlink="http://www.w3.org/1999/xlink"><g><path d="M334.863,241.097c0,0-23.217-27.285-40.167-29.305c0,0-0.348-0.102-0.873-0.305   c1.704-1.645,4.019-2.866,7.36-2.866l4.638-0.372c0,0-6.088-11.465-23.869-1.12c0,0-2.85-10.345,7.14-13.687   c0,0-11.431-8.903-26.372,12.957c0,0-3.933-5.936-0.694-11.108c0,0-9.022,1.12-9.243,21.792c-5.96,3.527-12.092,8.53-18.045,15.653   c-0.397,0.475-1.932,2.713-3.068,4.9c-3.281,6.224-11.702,22.556-22.386,34.58c-15.806,13.38-32.892,5.782-35.919,4.357   c-13.262-6.156-2.01,10.192,15.297,21.047c0.746,1.119,1.611,2.391,2.756,3.713c0,0,21.105,23.285,57.465,28.373   c37.005,5.155,58.254-10.498,68.685-20.418c4.637-4.343,17.382-22.099,18.213-50.42l8.675-12.922L334.863,241.097z    M297.809,251.205c-6.359,0-11.523-5.07-11.523-11.312c0-6.24,5.164-11.277,11.523-11.277c6.435,0,11.6,5.037,11.6,11.277   C309.408,246.135,304.243,251.205,297.809,251.205z" fill="#174A97"/><path d="M443.825,414.231H68.219v-105.23l-14.602,13.991L2.834,272.115L256.776,19.021l13.991,15.042l34.366,34.342   V29.79h94.496v132.975l109.537,109.351l-50.74,50.894l-14.602-14.008V414.231z M97.371,385.078h317.302V240.605l43.296,41.566   l9.98-10.022l-97.472-97.293V58.925h-36.189v79.843l-78.283-78.249L44.053,272.149l10.005,10.022l43.313-41.566V385.078z" fill="#174A97"/><rect fill="#174A97" height="29.136" width="158.624" x="176.688" y="463.836"/></g></svg>