<svg width="24" height="24" xmlns="http://www.w3.org/2000/svg">

 <g>
  <title>background</title>
  <rect fill="none" id="canvas_background" height="26" width="26" y="-1" x="-1"/>
 </g>
 <g>
  <title>Layer 1</title>
  <path stroke="null" id="svg_2" fill="#ffffff" d="m11.681715,0.734011c-6.234208,0 -11.241209,3.738364 -11.241209,8.311508s11.241209,13.465369 11.241209,13.465369s11.241209,-8.85593 11.241209,-13.465369s-5.007001,-8.311508 -11.241209,-8.311508zm0,20.688033c-1.030853,-0.83478 -2.945295,-2.468046 -4.859737,-4.39167c-3.534354,-3.520595 -5.399707,-6.278999 -5.399707,-8.02115c0,-4.173901 4.614295,-7.585612 10.259444,-7.585612s10.259444,3.448005 10.259444,7.621907c0,1.705855 -1.865353,4.500555 -5.399707,8.02115c-1.914442,1.887329 -3.828883,3.520595 -4.859737,4.355375z"/>
  <path stroke="null" id="svg_3" fill="#ffffff" d="m12.050666,5.240508c-2.843435,0 -5.118183,2.274749 -5.118183,5.118184c0,2.843436 2.274748,5.118184 5.118183,5.118184c2.843435,0 5.118183,-2.274749 5.118183,-5.118184c0,-2.796045 -2.274748,-5.118184 -5.118183,-5.118184zm2.938216,8.103792c-0.758249,0.75825 -1.800842,1.232155 -2.938216,1.232155c-1.137374,0 -2.179967,-0.473906 -2.938216,-1.232155c-0.758249,-0.75825 -1.232155,-1.800843 -1.232155,-2.938217c0,-1.137374 0.473906,-2.179967 1.232155,-2.938217c0.758249,-0.75825 1.800842,-1.232155 2.938216,-1.232155c1.137374,0 2.179967,0.473906 2.938216,1.232155c0.758249,0.75825 1.232155,1.800843 1.232155,2.938217c0,1.137374 -0.473906,2.179967 -1.232155,2.938217z"/>
 </g>
</svg>