<?xml version="1.0" ?><!DOCTYPE svg  PUBLIC '-//W3C//DTD SVG 1.1//EN'  'http://www.w3.org/Graphics/SVG/1.1/DTD/svg11.dtd'><svg height="30px" style="enable-background:new 0 0 512 512;" version="1.1" viewBox="0 0 512 512" width="30px" xml:space="preserve" xmlns="http://www.w3.org/2000/svg" xmlns:xlink="http://www.w3.org/1999/xlink"><g id="_x31_68_x2C__Twitter_x2C__Mail_x2C__Sms_x2C__Chat"><g id="XMLID_5030_"><g id="XMLID_6743_"><g><g><g><path d="M480,135.5v241c0,19.05-15.45,34.5-34.5,34.5h-375c-19.05,0-34.5-15.45-34.5-34.5v-241        c0-10.72,4.891-20.29,12.561-26.62L60,110l200,190l200-190l2.67-4.43C473.03,111.53,480,122.7,480,135.5z" style="fill:#C2E3F7;"/></g><g><path d="M462.67,105.57L460,110L260,300L60,110l-11.439-1.12C54.521,103.96,62.17,101,70.5,101h375        C451.75,101,457.61,102.66,462.67,105.57z" style="fill:#C2E3F7;"/></g></g></g><g><g><g><path d="M445.5,421h-375C45.962,421,26,401.037,26,376.5v-241c0-13.325,5.903-25.838,16.195-34.333        C50.137,94.611,60.189,91,70.5,91h375c7.781,0,15.442,2.041,22.155,5.901C481.438,104.83,490,119.62,490,135.5v241        C490,401.037,470.037,421,445.5,421z M70.5,111c-5.675,0-11.206,1.986-15.574,5.592C49.253,121.274,46,128.166,46,135.5v241        c0,13.51,10.991,24.5,24.5,24.5h375c13.51,0,24.5-10.99,24.5-24.5v-241c0-8.745-4.72-16.892-12.316-21.262        C454.001,112.12,449.787,111,445.5,111H70.5z" style="fill:#0B93E2;"/></g><g><path d="M260,310c-2.479,0-4.958-0.917-6.888-2.75l-200-190c-4.004-3.804-4.166-10.133-0.362-14.138        c3.804-4.003,10.133-4.165,14.138-0.362L260,286.207L453.112,102.75c4.005-3.804,10.335-3.641,14.138,0.362        c3.804,4.004,3.642,10.334-0.362,14.138l-200,190C264.958,309.083,262.479,310,260,310z" style="fill:#0B93E2;"/></g></g></g></g></g></g><g id="Layer_1"/></svg>