<svg width="40.00000000000001" height="40.00000000000001" xmlns="http://www.w3.org/2000/svg">

 <g>
  <title>background</title>
  <rect fill="none" id="canvas_background" height="42" width="42" y="-1" x="-1"/>
 </g>
 <g>
  <title>Layer 1</title>
  <path id="svg_2" fill="#ffffff" d="m34.287426,26.258088c-0.59033,-0.38574 -1.35742,-0.23633 -1.74707,0.33984l-0.50537,0.7417l0,-12.6206c0,-3.85742 -3.14404,-6.99609 -7.00879,-6.99609l-9.72607,0c-0.69629,0 -1.26318,0.56641 -1.26318,1.2627c0,0.70801 0.55469,1.2627 1.26318,1.2627l9.72607,0c2.47217,0 4.48291,2.00586 4.48291,4.4707l0,12.63098l-0.5083,-0.75696c-0.40185,-0.57031 -1.17334,-0.71582 -1.76562,-0.32812c-0.57031,0.40234 -0.71729,1.17383 -0.33154,1.76074l2.81494,4.15625c0.23779,0.33887 0.63721,0.5498 1.0415,0.5498c0.41162,0 0.81543,-0.21094 1.05615,-0.55469l2.81494,-4.15527c0.3833,-0.58204 0.23682,-1.35352 -0.34375,-1.76368z"/>
  <path id="svg_3" fill="#ffffff" d="m26.024736,30.423982l-9.71436,0c-2.47852,0 -4.49463,-2.00586 -4.49463,-4.4707l0,-12.64575l0.5166,0.76685c0.3916,0.57715 1.15967,0.72656 1.75732,0.33301c0.57031,-0.40234 0.71729,-1.17383 0.33154,-1.76074l-2.8125,-4.15234c-0.22754,-0.33398 -0.61621,-0.54883 -1.05957,-0.52734c-0.42871,0.00391 -0.81445,0.20215 -1.02881,0.52734l-2.82666,4.15625c-0.3833,0.58203 -0.23682,1.35352 0.35156,1.76855c0.22021,0.13574 0.4668,0.20996 0.69531,0.20996c0.41895,0 0.80225,-0.19922 1.05762,-0.55566l0.49121,-0.72937l0,12.60924c0,3.85742 3.1499,6.99609 7.021,6.99609l9.71436,0c0.69629,0 1.2627,-0.56641 1.2627,-1.2627c0.00001,-0.708 -0.55468,-1.26269 -1.26269,-1.26269z"/>
 </g>
</svg>